<?xml version="1.0" standalone="no"?>
<!DOCTYPE svg PUBLIC "-//W3C//DTD SVG 20010904//EN"
 "http://www.w3.org/TR/2001/REC-SVG-20010904/DTD/svg10.dtd">
<svg version="1.0" xmlns="http://www.w3.org/2000/svg"
 width="1024.000000pt" height="1024.000000pt" viewBox="0 0 1024.000000 1024.000000"
 preserveAspectRatio="xMidYMid meet">
<metadata>
Created by potrace 1.11, written by Peter Selinger 2001-2013
</metadata>
<g transform="translate(0.000000,1024.000000) scale(0.100000,-0.100000)"
fill="#000000" stroke="none">
<path d="M5025 8594 c-44 -14 -102 -31 -130 -39 -83 -23 -895 -254 -965 -275
-121 -36 -315 -91 -400 -115 -47 -13 -220 -63 -385 -110 -165 -48 -329 -95
-365 -105 -36 -10 -225 -64 -420 -120 -195 -56 -384 -110 -420 -120 -36 -10
-162 -46 -280 -80 -118 -34 -244 -70 -280 -80 -36 -10 -114 -33 -175 -50 -60
-18 -117 -33 -125 -35 -8 -2 -71 -20 -140 -40 -116 -34 -198 -58 -729 -209
-106 -30 -196 -57 -198 -60 -3 -3 15 -10 38 -16 24 -6 82 -23 129 -36 47 -14
92 -27 100 -29 8 -2 71 -20 140 -40 69 -20 148 -42 175 -50 28 -8 185 -53 350
-100 292 -85 371 -107 485 -138 30 -9 96 -27 145 -42 50 -15 122 -35 160 -46
98 -28 177 -51 345 -99 80 -23 190 -54 245 -70 55 -15 172 -49 260 -75 88 -26
176 -51 195 -55 19 -4 49 -12 65 -18 50 -17 139 -42 165 -47 14 -3 36 -9 50
-14 14 -6 99 -31 190 -56 182 -51 319 -90 365 -105 17 -5 86 -25 155 -44 69
-19 292 -82 495 -141 204 -58 393 -112 420 -120 28 -7 136 -38 242 -69 l192
-56 473 136 c260 75 507 145 548 156 41 11 82 22 90 25 8 3 20 7 27 9 7 1 43
11 80 23 70 21 586 169 613 175 27 7 304 86 335 95 28 10 582 168 860 246 72
21 159 46 195 57 36 11 73 21 83 23 10 2 55 15 100 28 45 14 91 27 102 30 11
2 180 51 375 107 195 56 362 104 370 106 8 2 110 31 225 64 116 34 217 63 225
65 32 7 405 117 409 120 1 2 -17 9 -40 15 -65 17 -489 138 -524 149 -16 6
-394 114 -840 241 -1040 297 -1087 311 -1105 315 -8 2 -46 14 -85 25 -38 12
-92 28 -120 35 -27 7 -99 28 -160 45 -60 18 -123 36 -140 40 -16 5 -70 20
-120 35 -89 26 -191 55 -210 59 -10 3 -75 22 -195 57 -36 10 -114 32 -175 49
-60 17 -123 36 -140 41 -28 9 -534 154 -580 166 -11 3 -167 48 -347 99 -180
52 -331 94 -335 93 -5 -1 -44 -12 -88 -25z"/>
<path d="M2050 4441 l0 -1650 68 -20 c163 -48 188 -55 197 -57 11 -2 990 -284
1095 -315 36 -11 74 -21 85 -24 11 -2 43 -11 70 -19 28 -7 169 -48 315 -90
146 -41 279 -80 295 -85 33 -11 231 -68 280 -81 17 -4 173 -49 348 -99 l318
-91 177 50 c97 28 319 92 492 142 173 49 376 107 450 128 229 65 454 129 485
139 17 6 338 98 715 206 377 108 700 200 718 206 l32 11 0 1649 0 1650 -22 -7
c-13 -4 -43 -13 -68 -20 -25 -7 -85 -24 -135 -39 -49 -14 -112 -32 -140 -39
-27 -7 -122 -35 -210 -61 -88 -26 -182 -53 -210 -60 -27 -7 -138 -38 -245 -69
-107 -32 -202 -59 -210 -61 -8 -2 -40 -11 -70 -20 -30 -9 -64 -18 -75 -20 -11
-3 -40 -11 -65 -19 l-45 -13 -3 -871 c-2 -818 -3 -871 -20 -876 -56 -17 -206
-61 -262 -76 -141 -40 -286 -81 -540 -155 -146 -42 -274 -79 -285 -82 -11 -3
-41 -11 -66 -19 -25 -8 -54 -16 -65 -18 -10 -2 -90 -25 -177 -50 l-157 -46
-283 80 c-155 45 -293 85 -307 89 -14 5 -59 18 -100 30 -131 37 -252 72 -340
97 -47 14 -92 26 -100 28 -19 5 -317 91 -387 112 l-53 16 -2 870 -3 871 -290
83 c-367 104 -1164 333 -1187 340 -17 5 -18 -78 -18 -1645z"/>
</g>
</svg>
